<?xml version="1.0" encoding="utf-8"?><svg viewBox="0 0 1840 833" xmlns="http://www.w3.org/2000/svg" xmlns:xlink="http://www.w3.org/1999/xlink"><style>:root>svg{display:none}:root>svg:target{display:block}</style><svg fill="none" viewBox="0 0 178 242" id="img-10" xmlns="http://www.w3.org/2000/svg"><mask id="aa" mask-type="alpha" maskUnits="userSpaceOnUse" x="0" y="0" width="178" height="242"><path fill="#C4C4C4" d="M0 0h178v242H0z"/></mask><g mask="url(#aa)" fill-rule="evenodd" clip-rule="evenodd" fill="#FB9ACF"><path d="M-43 204c72.902 0 132-59.098 132-132S29.902-60-43-60-175-.902-175 72s59.098 132 132 132ZM81 223a8 8 0 1 0 0-16 8 8 0 0 0 0 16Z"/></g></svg><svg fill="none" viewBox="0 0 214 370" id="img-11" xmlns="http://www.w3.org/2000/svg"><mask id="ba" mask-type="alpha" maskUnits="userSpaceOnUse" x="0" y="0" width="214" height="370"><path transform="matrix(-1 0 0 1 214 0)" fill="#C4C4C4" d="M0 0h214v370H0z"/></mask><g mask="url(#ba)" fill-rule="evenodd" clip-rule="evenodd" fill="#FB9ACF"><path d="M228 362c72.902 0 132-59.098 132-132S300.902 98 228 98 96 157.098 96 230s59.098 132 132 132ZM45 326a8 8 0 1 0 0-16 8 8 0 0 0 0 16ZM124 31a8 8 0 1 0 0-16 8 8 0 0 0 0 16Z"/></g></svg><svg viewBox="0 0 1840 833" id="img-6" xmlns="http://www.w3.org/2000/svg"><defs><linearGradient x1="100%" y1="50%" x2="0%" y2="50%" id="cc"><stop stop-color="#393939" offset="0%"/><stop stop-color="#303030" offset="100%"/></linearGradient><linearGradient x1="50%" y1="0%" x2="50%" y2="100%" id="cd"><stop stop-color="#565656" offset="0%"/><stop stop-color="#7A7A7A" offset="100%"/></linearGradient><path id="ca" d="M0 0h1840v833H0z"/></defs><g fill="none" fill-rule="evenodd"><mask id="cb" fill="#fff"><use xlink:href="#ca"/></mask><use fill="#000" xlink:href="#ca"/><g mask="url(#cb)"><g transform="rotate(25 1204.45 29.483)"><rect fill="url(#cc)" x="330" width="660" height="440" rx="6.8"/><rect fill="url(#cc)" y="560" width="660" height="440" rx="6.8"/><rect fill="url(#cd)" opacity=".8" x="1110" width="660" height="440" rx="6.8"/><rect fill="url(#cd)" opacity=".8" x="780" y="560" width="660" height="440" rx="6.8"/><rect fill="url(#cc)" x="1560" y="560" width="660" height="440" rx="6.8"/></g></g></g></svg><svg fill="none" viewBox="0 0 150 35" id="logo" xmlns="http://www.w3.org/2000/svg"><path fill-rule="evenodd" clip-rule="evenodd" d="M89.187 9.227a1.912 1.912 0 0 0-1.137 1.798v.025A1.825 1.825 0 0 0 90 12.887a1.913 1.913 0 1 0-.813-3.66Zm-41.85.86h-3.75V25.25h3.75V10.088Zm7.338 3.45c-3.55 0-5.85 2.238-5.85 5.988 0 3.813 2.25 6 5.85 6 3.6 0 5.85-2.25 5.85-6s-2.3-5.987-5.85-5.987Zm2.088 5.988c0-2.063-.813-3.275-2.088-3.275-1.275 0-2.075 1.25-2.075 3.275s.788 3.25 2.075 3.25c1.288 0 2.088-1.15 2.088-3.237v-.013Zm8.774 6.463h-3.6V26c.213 2.075 2.276 3.563 5.588 3.563 3.563 0 5.975-1.7 5.975-4.438V13.75h-3.75v2.088a3.587 3.587 0 0 0-3.45-2.2c-2.875 0-4.6 2.262-4.6 5.85 0 3.587 1.813 5.675 4.55 5.675a3.55 3.55 0 0 0 3.412-2.05h.075v2.1c0 1.124-.75 1.9-2.174 1.9a1.937 1.937 0 0 1-2.026-1.125Zm4.213-6.476c0-1.825-.838-2.974-2.162-2.974-1.325 0-2.138 1.137-2.138 2.974 0 1.838.8 2.875 2.138 2.875 1.337 0 2.162-1.012 2.162-2.862v-.012Zm11.013-5.987c-3.55 0-5.85 2.237-5.85 5.987v.013c0 3.813 2.237 5.988 5.85 5.988 3.612 0 5.862-2.25 5.862-6s-2.313-5.988-5.862-5.988Zm2.087 5.987c0-2.062-.813-3.274-2.087-3.274-1.276 0-2.013 1.262-2.013 3.3 0 2.037.787 3.25 2.063 3.25 1.275 0 2.037-1.163 2.037-3.25v-.026Zm5.2-5.737h3.75V25.25h-3.75V13.775ZM100.9 25.4c2.85 0 4.512-2.137 4.512-5.887l.05.024c0-3.75-1.712-5.9-4.587-5.95A3.588 3.588 0 0 0 97.4 15.8h-.075v-2.05h-3.75v15.175h3.75v-5.65h.075a3.575 3.575 0 0 0 3.5 2.125Zm.762-5.887c0-1.826-.837-2.988-2.15-2.988-1.312 0-2.15 1.175-2.162 2.988-.012 1.812.85 2.974 2.163 2.974 1.312 0 2.149-1.137 2.149-2.95v-.024Zm15.275-2.163c-.087-2.363-1.975-3.838-5.087-3.838v.025c-3.1 0-5.113 1.463-5.138 3.713 0 1.75 1.175 2.938 3.413 3.4l2.162.463c.9.187 1.25.312 1.25.912 0 .6-.5.963-1.6.963s-1.775-.5-1.887-1.35h-3.613c.163 2.337 2.25 3.862 5.438 3.862 3.187 0 5.35-1.525 5.35-3.9 0-1.738-.975-2.663-3.263-3.15l-2.4-.488c-.837-.174-1.25-.362-1.25-.95 0-.587.463-.987 1.5-.987 1.038 0 1.713.513 1.713 1.325h3.412Zm12.8 7.875h-3.612v-2.138h-.075a3.262 3.262 0 0 1-3.325 2.388 3.988 3.988 0 0 1-4.2-4.313V13.75h3.75v6.55c0 1.363.7 2.087 1.862 2.087a1.913 1.913 0 0 0 1.9-2.162V13.75h3.75l-.05 11.475Zm5.438-11.475h-3.625l-.063 11.5h3.75v-6.762a1.675 1.675 0 0 1 1.663-1.875c1.025 0 1.587.625 1.587 1.774v6.863h3.563v-6.788a1.635 1.635 0 0 1 1.637-1.85c1.05 0 1.613.576 1.613 1.826v6.812h3.75v-7.813a3.639 3.639 0 0 0-3.75-3.9 3.525 3.525 0 0 0-3.525 2.5h-.075a2.988 2.988 0 0 0-3.188-2.5 3.325 3.325 0 0 0-3.262 2.425h-.075V13.75Z" fill="#fff"/><path fill-rule="evenodd" clip-rule="evenodd" d="M30.6 6.75a16.563 16.563 0 0 1 2.5 4.025 16.738 16.738 0 0 1 1.4 6.725c-.007 9.342-7.57 16.917-16.913 16.938a16.738 16.738 0 0 1-6.337-1.25 16.361 16.361 0 0 1-4-2.288A16.912 16.912 0 1 1 30.6 6.75Zm-7.375-1.513a13.388 13.388 0 0 0-5.65-1.25l.012-.025A13.5 13.5 0 0 0 5.375 23.238c.565-.594.913-1.36.987-2.175A7.162 7.162 0 0 1 12.425 15a3.75 3.75 0 0 0 3.387-3.313 7.162 7.162 0 0 1 6.063-6.062c.465-.07.918-.201 1.35-.388ZM7.387 26.116c.1-.089.2-.177.3-.277A6.85 6.85 0 0 0 9.712 21.8a3.65 3.65 0 0 1 1.088-2.275 3.538 3.538 0 0 1 2.262-1.075 7.162 7.162 0 0 0 6.063-6.063A3.65 3.65 0 0 1 20.212 10 3.588 3.588 0 0 1 22.5 8.963a6.85 6.85 0 0 0 3.75-1.788 13.137 13.137 0 0 1 2.95 3.475 1.074 1.074 0 0 1-.162.175 3.588 3.588 0 0 1-2.263 1.1 7.137 7.137 0 0 0-6.063 6.063 3.75 3.75 0 0 1-3.362 3.35 7.2 7.2 0 0 0-6.1 6.062 3.926 3.926 0 0 1-.613 1.713 13.613 13.613 0 0 1-3.4-2.863l.15-.135Zm6.438 4.435c1.22.35 2.482.526 3.75.525v-.063A13.525 13.525 0 0 0 30.6 14.037a7.137 7.137 0 0 1-3.2 1.25 3.75 3.75 0 0 0-3.35 3.35 7.162 7.162 0 0 1-6.075 6.063 3.75 3.75 0 0 0-3.35 3.35 7.225 7.225 0 0 1-.8 2.5Z" fill="#FB9ACF"/></svg><svg viewBox="0 0 47 59" id="not-found" xmlns="http://www.w3.org/2000/svg"><path d="M0 0h30.5L47 16.5V59H0V0Zm21 19h5v15h-5V19Zm0 20h5v5h-5v-5Z" fill="#333" fill-rule="evenodd"/></svg></svg>